<svg width="51" height="51" viewBox="0 0 51 51" fill="none" xmlns="http://www.w3.org/2000/svg">
    <g clip-path="url(#clip0_20_9952)">
        <path d="M50.25 38.0833C50.1667 17.75 32.9167 0.583333 12.5833 0.5L0.25 50.5L50.25 38.0833Z" fill="#F6DA77"/>
        <path d="M43.75 39.6667L45.5 39.3333C44.6667 23.5 33.3333 6.91667 11.3333 5.25L11.0833 6.91667C27.9167 9.08333 41.6667 22.75 43.75 39.6667Z" fill="#860D16"/>
        <path d="M45.4167 39.3333L50.1667 38.1667C50.25 17.8333 32.9167 0.5 12.4167 0.5L11.25 5.25C30.8333 7.08333 43.5833 19.9167 45.4167 39.3333Z" fill="#C98E52"/>
        <path d="M9.58332 33.5835C8.16666 33.5835 6.91666 33.0835 5.91666 32.0835C5.49999 31.6668 5.49999 31.0002 5.91666 30.6668C6.33332 30.2502 6.99999 30.2502 7.33332 30.6668C8.49999 31.8335 10.5833 31.8335 11.75 30.6668C12.3333 30.0835 12.6667 29.3335 12.6667 28.5002C12.6667 27.6668 12.3333 26.9168 11.75 26.3335C11.3333 25.9168 11.3333 25.2502 11.75 24.9168C12.1667 24.5002 12.8333 24.5002 13.1667 24.9168C14.1667 25.9168 14.6667 27.1668 14.6667 28.5835C14.6667 30.0002 14.1667 31.2502 13.1667 32.2502C12.25 33.0002 10.9167 33.5835 9.58332 33.5835ZM30.5 17.0835V17.5002C30.4167 17.7502 30.3333 17.9168 30.0833 18.0835C29.8333 18.2502 29.5833 18.2502 29.4167 18.1668C28.75 18.0002 28.0833 18.1668 27.5 18.5002C26.9167 18.8335 26.5 19.4168 26.3333 20.0835C26 21.4168 26.9167 22.8335 28.25 23.1668C28.75 23.2502 29.0833 23.8335 28.9167 24.2502C28.8333 24.7502 28.3333 25.0835 27.8333 24.9168C26.1667 24.5002 24.9167 23.2502 24.5 21.5835C24.3333 20.9168 24.3333 20.2502 24.5 19.6668C24.75 18.5002 25.5 17.5835 26.5 16.9168C27.5 16.2502 28.6667 16.0835 29.8333 16.3335C30.0833 16.5002 30.4167 16.7502 30.5 17.0835ZM34.9167 41.2502H34.5C34.25 41.1668 34.0833 41.0835 34 40.8335C33.9167 40.6668 33.8333 40.4168 33.9167 40.1668C34.0833 39.5835 34 38.9168 33.6667 38.3335C33.3333 37.7502 32.8333 37.3335 32.1667 37.1668C30.9167 36.8335 29.5 37.6668 29.1667 38.8335C29.0833 39.2502 28.5 39.5835 28.0833 39.4168C27.5833 39.2502 27.3333 38.8335 27.5 38.3335C27.9167 36.8335 29.1667 35.5835 30.75 35.3335C31.3333 35.2502 32 35.2502 32.5833 35.4168C33.6667 35.6668 34.5833 36.4168 35.0833 37.3335C35.6667 38.3335 35.75 39.4168 35.5 40.5002C35.5 40.9168 35.25 41.1668 34.9167 41.2502Z" fill="#83BF4F"/>
        <path d="M29.25 29C30.4167 32.4166 28.5833 36.0833 25.0833 37.25C21.5833 38.4166 17.8333 36.5833 16.75 33.1666C15.5833 29.75 17.4167 26.0833 20.9167 24.9166C24.3333 23.75 28.0833 25.5833 29.25 29ZM39.6667 29.6666C40.3333 31.75 39.25 33.9166 37.1667 34.6666C35.0833 35.3333 32.8333 34.25 32.1667 32.1666C31.5 30.0833 32.5833 27.9166 34.6667 27.1666C36.6667 26.5 38.9167 27.5833 39.6667 29.6666ZM22.5 14.6666C23.4167 17.4166 21.9167 20.5 19.0833 21.4166C16.25 22.3333 13.1667 20.8333 12.25 18.0833C11.3333 15.3333 12.8333 12.25 15.6667 11.3333C18.5 10.4166 21.5833 11.9166 22.5 14.6666ZM27 43.8333L18.9167 45.8333C18.1667 43.6666 19.6667 41.0833 21.8333 40.5C24.5 39.8333 26.25 41.75 27 43.8333ZM14.6667 38C15.6667 40.8333 14.0833 44 11.1667 44.9166C8.24999 45.9166 5.08332 44.3333 4.08332 41.4166C3.08332 38.5833 4.66666 35.4166 7.58332 34.5C10.5 33.5833 13.6667 35.1666 14.6667 38Z" fill="#B21725"/>
        <path d="M11.25 5.25C15.6667 5.33333 20.0833 6.16667 24.25 7.83333C28.4167 9.41667 32.3333 11.9167 35.5 15.1667C38.6667 18.3333 41.1667 22.25 42.8333 26.4167C44.5 30.5833 45.3333 35 45.4167 39.4167C44.6667 35.0833 43.5 30.8333 41.6667 26.9167C39.8333 23 37.4167 19.3333 34.3333 16.3333C31.3333 13.25 27.6667 10.8333 23.75 9.08333C19.8333 7.16667 15.5833 6 11.25 5.25Z" fill="#E0A763"/>
        <path d="M12.3283 10.0299L13.9783 8.37988L15.6283 10.0299L13.9783 11.6799L12.3283 10.0299ZM23.1 14.7032L24.75 13.0532L26.4 14.7032L24.75 16.3532L23.1 14.7032ZM9.09 20.8732L10.74 19.2232L12.39 20.8732L10.74 22.5232L9.09 20.8732ZM14.79 25.6124L16.44 23.9624L18.09 25.6124L16.44 27.2624L14.79 25.6124ZM29.6208 25.8249L31.2708 24.1749L32.9208 25.8249L31.2708 27.4749L29.6208 25.8249ZM39.1867 37.6174L40.8367 35.9674L42.4867 37.6174L40.8367 39.2674L39.1867 37.6174ZM14.6808 36.0432L16.3308 34.3932L17.9808 36.0432L16.3308 37.6932L14.6808 36.0432ZM15.8617 42.0857L17.5117 40.4357L19.1617 42.0857L17.5117 43.7357L15.8617 42.0857ZM1.94833 47.3674L3.59833 45.7174L5.24833 47.3674L3.59833 49.0174L1.94833 47.3674ZM9.975 13.2732L11.2125 12.0357L12.45 13.2732L11.2125 14.5107L9.975 13.2732ZM20.46 22.0774L21.6975 20.8399L22.935 22.0774L21.6975 23.3149L20.46 22.0774ZM31.7292 22.1291L32.9667 20.8915L34.2042 22.1291L32.9667 23.3666L31.7292 22.1291ZM9.53 28.9699L10.7675 27.7324L12.005 28.9699L10.7675 30.2074L9.53 28.9699ZM4.46667 33.9165L5.70417 32.6791L6.94167 33.9157L5.70417 35.1532L4.46667 33.9165ZM2.525 44.2374L3.7625 42.9999L5 44.2374L3.7625 45.4749L2.525 44.2374ZM13.23 44.9049L14.4675 43.6674L15.705 44.9057L14.4675 46.1424L13.23 44.9049ZM23.9817 39.1215L25.2192 37.8841L26.4567 39.1215L25.2192 40.3591L23.9817 39.1215ZM29.2017 41.2466L30.4392 40.009L31.6767 41.2466L30.4392 42.4832L29.2017 41.2466ZM36.1467 36.4749L37.3842 35.2382L38.6217 36.4757L37.3842 37.7132L36.1467 36.4749Z" fill="#FFAB41"/>
    </g>
    <defs>
        <clipPath id="clip0_20_9952">
            <rect width="50.8333" height="50" fill="white" transform="translate(0 0.5)"/>
        </clipPath>
    </defs>
</svg>