<svg width="282" height="282" viewBox="0 0 282 282" fill="none" xmlns="http://www.w3.org/2000/svg">
    <circle cx="141" cy="141.33" r="83.3315" fill="#05C605"/>
    <circle cx="141" cy="140.663" r="140.663" fill="#05C605" fill-opacity="0.1"/>
    <path fill-rule="evenodd" clip-rule="evenodd" d="M185.077 99.4089C188.288 101.509 189.188 105.809 187.088 109.02L139.867 181.24C139.317 182.082 138.59 182.794 137.738 183.327C136.886 183.86 135.928 184.202 134.93 184.329C133.933 184.456 132.92 184.365 131.961 184.061C131.003 183.758 130.121 183.251 129.378 182.574L98.8234 154.797C97.4605 153.557 96.6457 151.828 96.5581 149.988C96.4706 148.148 97.1176 146.349 98.3567 144.986C99.5958 143.623 101.326 142.808 103.166 142.72C105.005 142.633 106.805 143.28 108.168 144.519L132.7 166.819L175.466 101.42C176.474 99.8791 178.053 98.8016 179.855 98.4245C181.657 98.0473 183.536 98.4014 185.077 99.4089Z" fill="white"/>
</svg>